<svg xmlns="http://www.w3.org/2000/svg" xmlns:xlink="http://www.w3.org/1999/xlink" contentStyleType="text/css" height="662px" preserveAspectRatio="none" style="width:1339px;height:662px;background:#FFFFFF;" version="1.1" viewBox="0 0 1339 662" width="1339px" zoomAndPan="magnify"><defs/><g><!--cluster Style Interface--><g id="cluster_Style Interface"><path d="M351.5,399.97 L467.5,399.97 A3.75,3.75 0 0 1 470,402.47 L477,422.2669 L833.5,422.2669 A2.5,2.5 0 0 1 836,424.7669 L836,653.36 A2.5,2.5 0 0 1 833.5,655.86 L351.5,655.86 A2.5,2.5 0 0 1 349,653.36 L349,402.47 A2.5,2.5 0 0 1 351.5,399.97 " fill="none" style="stroke:#000000;stroke-width:1.5;"/><line style="stroke:#000000;stroke-width:1.5;" x1="349" x2="477" y1="422.2669" y2="422.2669"/><text fill="#000000" font-family="sans-serif" font-size="14" font-weight="bold" lengthAdjust="spacing" textLength="115" x="353" y="414.9651">Style Interface</text></g><!--cluster Icon Family Interface--><g id="cluster_Icon Family Interface"><path d="M862.5,399.97 L1026.5,399.97 A3.75,3.75 0 0 1 1029,402.47 L1036,422.2669 L1329.5,422.2669 A2.5,2.5 0 0 1 1332,424.7669 L1332,653.36 A2.5,2.5 0 0 1 1329.5,655.86 L862.5,655.86 A2.5,2.5 0 0 1 860,653.36 L860,402.47 A2.5,2.5 0 0 1 862.5,399.97 " fill="none" style="stroke:#000000;stroke-width:1.5;"/><line style="stroke:#000000;stroke-width:1.5;" x1="860" x2="1036" y1="422.2669" y2="422.2669"/><text fill="#000000" font-family="sans-serif" font-size="14" font-weight="bold" lengthAdjust="spacing" textLength="163" x="864" y="414.9651">Icon Family Interface</text></g><!--cluster Component Interface--><g id="cluster_Component Interface"><path d="M8.5,226.78 L176.5,226.78 A3.75,3.75 0 0 1 179,229.28 L186,249.0769 L322.5,249.0769 A2.5,2.5 0 0 1 325,251.5769 L325,653.36 A2.5,2.5 0 0 1 322.5,655.86 L8.5,655.86 A2.5,2.5 0 0 1 6,653.36 L6,229.28 A2.5,2.5 0 0 1 8.5,226.78 " fill="none" style="stroke:#000000;stroke-width:1.5;"/><line style="stroke:#000000;stroke-width:1.5;" x1="6" x2="186" y1="249.0769" y2="249.0769"/><text fill="#000000" font-family="sans-serif" font-size="14" font-weight="bold" lengthAdjust="spacing" textLength="167" x="10" y="241.7751">Component Interface</text></g><!--cluster Factories--><g id="cluster_Factories"><path d="M439.5,243.08 L513.5,243.08 A3.75,3.75 0 0 1 516,245.58 L523,265.3769 L1065.5,265.3769 A2.5,2.5 0 0 1 1068,267.8769 L1068,355.88 A2.5,2.5 0 0 1 1065.5,358.38 L439.5,358.38 A2.5,2.5 0 0 1 437,355.88 L437,245.58 A2.5,2.5 0 0 1 439.5,243.08 " fill="none" style="stroke:#000000;stroke-width:1.5;"/><line style="stroke:#000000;stroke-width:1.5;" x1="437" x2="523" y1="265.3769" y2="265.3769"/><text fill="#000000" font-family="sans-serif" font-size="14" font-weight="bold" lengthAdjust="spacing" textLength="73" x="441" y="258.0751">Factories</text></g><!--cluster Explorer--><g id="cluster_Explorer"><path d="M466.5,6 L533.5,6 A3.75,3.75 0 0 1 536,8.5 L543,28.2969 L677.5,28.2969 A2.5,2.5 0 0 1 680,30.7969 L680,200.28 A2.5,2.5 0 0 1 677.5,202.78 L466.5,202.78 A2.5,2.5 0 0 1 464,200.28 L464,8.5 A2.5,2.5 0 0 1 466.5,6 " fill="none" style="stroke:#000000;stroke-width:1.5;"/><line style="stroke:#000000;stroke-width:1.5;" x1="464" x2="543" y1="28.2969" y2="28.2969"/><text fill="#000000" font-family="sans-serif" font-size="14" font-weight="bold" lengthAdjust="spacing" textLength="66" x="468" y="20.9951">Explorer</text></g><!--class IStyle--><g id="elem_IStyle"><rect codeLine="2" fill="#F1F1F1" height="64.2969" id="IStyle" rx="2.5" ry="2.5" style="stroke:#181818;stroke-width:0.5;" width="210" x="467" y="434.97"/><ellipse cx="549.75" cy="450.97" fill="#B4A7E5" rx="11" ry="11" style="stroke:#181818;stroke-width:1.0;"/><path d="M545.6719,446.7356 L545.6719,444.5794 L553.0625,444.5794 L553.0625,446.7356 L550.5938,446.7356 L550.5938,454.8138 L553.0625,454.8138 L553.0625,456.97 L545.6719,456.97 L545.6719,454.8138 L548.1406,454.8138 L548.1406,446.7356 L545.6719,446.7356 Z " fill="#000000"/><text fill="#000000" font-family="sans-serif" font-size="14" font-style="italic" lengthAdjust="spacing" textLength="36" x="570.25" y="455.8167">IStyle</text><line style="stroke:#181818;stroke-width:0.5;" x1="468" x2="676" y1="466.97" y2="466.97"/><line style="stroke:#181818;stroke-width:0.5;" x1="468" x2="676" y1="474.97" y2="474.97"/><ellipse cx="478" cy="488.6184" fill="#84BE84" rx="3" ry="3" style="stroke:#038048;stroke-width:1.0;"/><text fill="#000000" font-family="sans-serif" font-size="14" lengthAdjust="spacing" textLength="184" x="487" y="491.9651">draw(container: Container)</text></g><!--class TreeStyle--><g id="elem_TreeStyle"><rect codeLine="6" fill="#F1F1F1" height="64.2969" id="TreeStyle" rx="2.5" ry="2.5" style="stroke:#181818;stroke-width:0.5;" width="210" x="365" y="575.56"/><ellipse cx="433.25" cy="591.56" fill="#ADD1B2" rx="11" ry="11" style="stroke:#181818;stroke-width:1.0;"/><path d="M436.2188,597.2006 Q435.6406,597.4975 435,597.6381 Q434.3594,597.7944 433.6563,597.7944 Q431.1563,597.7944 429.8281,596.1538 Q428.5156,594.4975 428.5156,591.3725 Q428.5156,588.2475 429.8281,586.5913 Q431.1563,584.935 433.6563,584.935 Q434.3594,584.935 435,585.0913 Q435.6563,585.2475 436.2188,585.5444 L436.2188,588.2631 Q435.5938,587.685 435,587.4194 Q434.4063,587.1381 433.7813,587.1381 Q432.4375,587.1381 431.75,588.2163 Q431.0625,589.2788 431.0625,591.3725 Q431.0625,593.4663 431.75,594.5444 Q432.4375,595.6069 433.7813,595.6069 Q434.4063,595.6069 435,595.3413 Q435.5938,595.06 436.2188,594.4819 L436.2188,597.2006 Z " fill="#000000"/><text fill="#000000" font-family="sans-serif" font-size="14" lengthAdjust="spacing" textLength="65" x="453.75" y="596.4067">TreeStyle</text><line style="stroke:#181818;stroke-width:0.5;" x1="366" x2="574" y1="607.56" y2="607.56"/><line style="stroke:#181818;stroke-width:0.5;" x1="366" x2="574" y1="615.56" y2="615.56"/><ellipse cx="376" cy="629.2084" fill="#84BE84" rx="3" ry="3" style="stroke:#038048;stroke-width:1.0;"/><text fill="#000000" font-family="sans-serif" font-size="14" lengthAdjust="spacing" textLength="184" x="385" y="632.5551">draw(container: Container)</text></g><!--class RectangleStyle--><g id="elem_RectangleStyle"><rect codeLine="10" fill="#F1F1F1" height="64.2969" id="RectangleStyle" rx="2.5" ry="2.5" style="stroke:#181818;stroke-width:0.5;" width="210" x="610" y="575.56"/><ellipse cx="659.25" cy="591.56" fill="#ADD1B2" rx="11" ry="11" style="stroke:#181818;stroke-width:1.0;"/><path d="M662.2188,597.2006 Q661.6406,597.4975 661,597.6381 Q660.3594,597.7944 659.6563,597.7944 Q657.1563,597.7944 655.8281,596.1538 Q654.5156,594.4975 654.5156,591.3725 Q654.5156,588.2475 655.8281,586.5913 Q657.1563,584.935 659.6563,584.935 Q660.3594,584.935 661,585.0913 Q661.6563,585.2475 662.2188,585.5444 L662.2188,588.2631 Q661.5938,587.685 661,587.4194 Q660.4063,587.1381 659.7813,587.1381 Q658.4375,587.1381 657.75,588.2163 Q657.0625,589.2788 657.0625,591.3725 Q657.0625,593.4663 657.75,594.5444 Q658.4375,595.6069 659.7813,595.6069 Q660.4063,595.6069 661,595.3413 Q661.5938,595.06 662.2188,594.4819 L662.2188,597.2006 Z " fill="#000000"/><text fill="#000000" font-family="sans-serif" font-size="14" lengthAdjust="spacing" textLength="103" x="679.75" y="596.4067">RectangleStyle</text><line style="stroke:#181818;stroke-width:0.5;" x1="611" x2="819" y1="607.56" y2="607.56"/><line style="stroke:#181818;stroke-width:0.5;" x1="611" x2="819" y1="615.56" y2="615.56"/><ellipse cx="621" cy="629.2084" fill="#84BE84" rx="3" ry="3" style="stroke:#038048;stroke-width:1.0;"/><text fill="#000000" font-family="sans-serif" font-size="14" lengthAdjust="spacing" textLength="184" x="630" y="632.5551">draw(container: Container)</text></g><!--class IIconFamily--><g id="elem_IIconFamily"><rect codeLine="19" fill="#F1F1F1" height="64.2969" id="IIconFamily" rx="2.5" ry="2.5" style="stroke:#181818;stroke-width:0.5;" width="203" x="875.5" y="434.97"/><ellipse cx="935.75" cy="450.97" fill="#B4A7E5" rx="11" ry="11" style="stroke:#181818;stroke-width:1.0;"/><path d="M931.6719,446.7356 L931.6719,444.5794 L939.0625,444.5794 L939.0625,446.7356 L936.5938,446.7356 L936.5938,454.8138 L939.0625,454.8138 L939.0625,456.97 L931.6719,456.97 L931.6719,454.8138 L934.1406,454.8138 L934.1406,446.7356 L931.6719,446.7356 Z " fill="#000000"/><text fill="#000000" font-family="sans-serif" font-size="14" font-style="italic" lengthAdjust="spacing" textLength="74" x="956.25" y="455.8167">IIconFamily</text><line style="stroke:#181818;stroke-width:0.5;" x1="876.5" x2="1077.5" y1="466.97" y2="466.97"/><line style="stroke:#181818;stroke-width:0.5;" x1="876.5" x2="1077.5" y1="474.97" y2="474.97"/><ellipse cx="886.5" cy="488.6184" fill="#84BE84" rx="3" ry="3" style="stroke:#038048;stroke-width:1.0;"/><text fill="#000000" font-family="sans-serif" font-size="14" lengthAdjust="spacing" textLength="177" x="895.5" y="491.9651">get_icon(is_leaf: bool): str</text></g><!--class PokerFaceIconFamily--><g id="elem_PokerFaceIconFamily"><rect codeLine="23" fill="#F1F1F1" height="64.2969" id="PokerFaceIconFamily" rx="2.5" ry="2.5" style="stroke:#181818;stroke-width:0.5;" width="203" x="875.5" y="575.56"/><ellipse cx="902.65" cy="591.56" fill="#ADD1B2" rx="11" ry="11" style="stroke:#181818;stroke-width:1.0;"/><path d="M905.6188,597.2006 Q905.0406,597.4975 904.4,597.6381 Q903.7594,597.7944 903.0563,597.7944 Q900.5563,597.7944 899.2281,596.1538 Q897.9156,594.4975 897.9156,591.3725 Q897.9156,588.2475 899.2281,586.5913 Q900.5563,584.935 903.0563,584.935 Q903.7594,584.935 904.4,585.0913 Q905.0563,585.2475 905.6188,585.5444 L905.6188,588.2631 Q904.9938,587.685 904.4,587.4194 Q903.8063,587.1381 903.1813,587.1381 Q901.8375,587.1381 901.15,588.2163 Q900.4625,589.2788 900.4625,591.3725 Q900.4625,593.4663 901.15,594.5444 Q901.8375,595.6069 903.1813,595.6069 Q903.8063,595.6069 904.4,595.3413 Q904.9938,595.06 905.6188,594.4819 L905.6188,597.2006 Z " fill="#000000"/><text fill="#000000" font-family="sans-serif" font-size="14" lengthAdjust="spacing" textLength="144" x="919.35" y="596.4067">PokerFaceIconFamily</text><line style="stroke:#181818;stroke-width:0.5;" x1="876.5" x2="1077.5" y1="607.56" y2="607.56"/><line style="stroke:#181818;stroke-width:0.5;" x1="876.5" x2="1077.5" y1="615.56" y2="615.56"/><ellipse cx="886.5" cy="629.2084" fill="#84BE84" rx="3" ry="3" style="stroke:#038048;stroke-width:1.0;"/><text fill="#000000" font-family="sans-serif" font-size="14" lengthAdjust="spacing" textLength="177" x="895.5" y="632.5551">get_icon(is_leaf: bool): str</text></g><!--class DefaultIconFamily--><g id="elem_DefaultIconFamily"><rect codeLine="27" fill="#F1F1F1" height="64.2969" id="DefaultIconFamily" rx="2.5" ry="2.5" style="stroke:#181818;stroke-width:0.5;" width="203" x="1113.5" y="575.56"/><ellipse cx="1151.45" cy="591.56" fill="#ADD1B2" rx="11" ry="11" style="stroke:#181818;stroke-width:1.0;"/><path d="M1154.4188,597.2006 Q1153.8406,597.4975 1153.2,597.6381 Q1152.5594,597.7944 1151.8563,597.7944 Q1149.3563,597.7944 1148.0281,596.1538 Q1146.7156,594.4975 1146.7156,591.3725 Q1146.7156,588.2475 1148.0281,586.5913 Q1149.3563,584.935 1151.8563,584.935 Q1152.5594,584.935 1153.2,585.0913 Q1153.8563,585.2475 1154.4188,585.5444 L1154.4188,588.2631 Q1153.7938,587.685 1153.2,587.4194 Q1152.6063,587.1381 1151.9813,587.1381 Q1150.6375,587.1381 1149.95,588.2163 Q1149.2625,589.2788 1149.2625,591.3725 Q1149.2625,593.4663 1149.95,594.5444 Q1150.6375,595.6069 1151.9813,595.6069 Q1152.6063,595.6069 1153.2,595.3413 Q1153.7938,595.06 1154.4188,594.4819 L1154.4188,597.2006 Z " fill="#000000"/><text fill="#000000" font-family="sans-serif" font-size="14" lengthAdjust="spacing" textLength="120" x="1170.55" y="596.4067">DefaultIconFamily</text><line style="stroke:#181818;stroke-width:0.5;" x1="1114.5" x2="1315.5" y1="607.56" y2="607.56"/><line style="stroke:#181818;stroke-width:0.5;" x1="1114.5" x2="1315.5" y1="615.56" y2="615.56"/><ellipse cx="1124.5" cy="629.2084" fill="#84BE84" rx="3" ry="3" style="stroke:#038048;stroke-width:1.0;"/><text fill="#000000" font-family="sans-serif" font-size="14" lengthAdjust="spacing" textLength="177" x="1133.5" y="632.5551">get_icon(is_leaf: bool): str</text></g><!--class Component--><g id="elem_Component"><rect codeLine="36" fill="#F1F1F1" height="96.8906" id="Component" rx="2.5" ry="2.5" style="stroke:#181818;stroke-width:0.5;" width="146" x="163" y="261.78"/><ellipse cx="192.4" cy="277.78" fill="#B4A7E5" rx="11" ry="11" style="stroke:#181818;stroke-width:1.0;"/><path d="M188.3219,273.5456 L188.3219,271.3894 L195.7125,271.3894 L195.7125,273.5456 L193.2438,273.5456 L193.2438,281.6238 L195.7125,281.6238 L195.7125,283.78 L188.3219,283.78 L188.3219,281.6238 L190.7906,281.6238 L190.7906,273.5456 L188.3219,273.5456 Z " fill="#000000"/><text fill="#000000" font-family="sans-serif" font-size="14" font-style="italic" lengthAdjust="spacing" textLength="82" x="209.6" y="282.6267">Component</text><line style="stroke:#181818;stroke-width:0.5;" x1="164" x2="308" y1="293.78" y2="293.78"/><rect fill="none" height="6" style="stroke:#C82930;stroke-width:1.0;" width="6" x="171" y="304.4284"/><text fill="#000000" font-family="sans-serif" font-size="14" lengthAdjust="spacing" textLength="56" x="183" y="310.7751">icon: str</text><rect fill="none" height="6" style="stroke:#C82930;stroke-width:1.0;" width="6" x="171" y="320.7253"/><text fill="#000000" font-family="sans-serif" font-size="14" lengthAdjust="spacing" textLength="66" x="183" y="327.072">name: str</text><line style="stroke:#181818;stroke-width:0.5;" x1="164" x2="308" y1="334.3738" y2="334.3738"/><ellipse cx="174" cy="348.0222" fill="#84BE84" rx="3" ry="3" style="stroke:#038048;stroke-width:1.0;"/><text fill="#000000" font-family="sans-serif" font-size="14" lengthAdjust="spacing" textLength="120" x="183" y="351.3689">draw(style: IStyle)</text></g><!--class Container--><g id="elem_Container"><rect codeLine="42" fill="#F1F1F1" height="96.8906" id="Container" rx="2.5" ry="2.5" style="stroke:#181818;stroke-width:0.5;" width="233" x="21.5" y="418.67"/><ellipse cx="100.25" cy="434.67" fill="#ADD1B2" rx="11" ry="11" style="stroke:#181818;stroke-width:1.0;"/><path d="M103.2188,440.3106 Q102.6406,440.6075 102,440.7481 Q101.3594,440.9044 100.6563,440.9044 Q98.1563,440.9044 96.8281,439.2638 Q95.5156,437.6075 95.5156,434.4825 Q95.5156,431.3575 96.8281,429.7013 Q98.1563,428.045 100.6563,428.045 Q101.3594,428.045 102,428.2013 Q102.6563,428.3575 103.2188,428.6544 L103.2188,431.3731 Q102.5938,430.795 102,430.5294 Q101.4063,430.2481 100.7813,430.2481 Q99.4375,430.2481 98.75,431.3263 Q98.0625,432.3888 98.0625,434.4825 Q98.0625,436.5763 98.75,437.6544 Q99.4375,438.7169 100.7813,438.7169 Q101.4063,438.7169 102,438.4513 Q102.5938,438.17 103.2188,437.5919 L103.2188,440.3106 Z " fill="#000000"/><text fill="#000000" font-family="sans-serif" font-size="14" lengthAdjust="spacing" textLength="67" x="120.75" y="439.5167">Container</text><line style="stroke:#181818;stroke-width:0.5;" x1="22.5" x2="253.5" y1="450.67" y2="450.67"/><rect fill="none" height="6" style="stroke:#C82930;stroke-width:1.0;" width="6" x="29.5" y="461.3184"/><text fill="#000000" font-family="sans-serif" font-size="14" lengthAdjust="spacing" textLength="83" x="41.5" y="467.6651">children: list</text><line style="stroke:#181818;stroke-width:0.5;" x1="22.5" x2="253.5" y1="474.9669" y2="474.9669"/><ellipse cx="32.5" cy="488.6153" fill="#84BE84" rx="3" ry="3" style="stroke:#038048;stroke-width:1.0;"/><text fill="#000000" font-family="sans-serif" font-size="14" lengthAdjust="spacing" textLength="120" x="41.5" y="491.962">draw(style: IStyle)</text><ellipse cx="32.5" cy="504.9122" fill="#84BE84" rx="3" ry="3" style="stroke:#038048;stroke-width:1.0;"/><text fill="#000000" font-family="sans-serif" font-size="14" lengthAdjust="spacing" textLength="207" x="41.5" y="508.2589">add(component: Component)</text></g><!--class Leaf--><g id="elem_Leaf"><rect codeLine="48" fill="#F1F1F1" height="64.2969" id="Leaf" rx="2.5" ry="2.5" style="stroke:#181818;stroke-width:0.5;" width="146" x="114" y="575.56"/><ellipse cx="168.75" cy="591.56" fill="#ADD1B2" rx="11" ry="11" style="stroke:#181818;stroke-width:1.0;"/><path d="M171.7188,597.2006 Q171.1406,597.4975 170.5,597.6381 Q169.8594,597.7944 169.1563,597.7944 Q166.6563,597.7944 165.3281,596.1538 Q164.0156,594.4975 164.0156,591.3725 Q164.0156,588.2475 165.3281,586.5913 Q166.6563,584.935 169.1563,584.935 Q169.8594,584.935 170.5,585.0913 Q171.1563,585.2475 171.7188,585.5444 L171.7188,588.2631 Q171.0938,587.685 170.5,587.4194 Q169.9063,587.1381 169.2813,587.1381 Q167.9375,587.1381 167.25,588.2163 Q166.5625,589.2788 166.5625,591.3725 Q166.5625,593.4663 167.25,594.5444 Q167.9375,595.6069 169.2813,595.6069 Q169.9063,595.6069 170.5,595.3413 Q171.0938,595.06 171.7188,594.4819 L171.7188,597.2006 Z " fill="#000000"/><text fill="#000000" font-family="sans-serif" font-size="14" lengthAdjust="spacing" textLength="28" x="189.25" y="596.4067">Leaf</text><line style="stroke:#181818;stroke-width:0.5;" x1="115" x2="259" y1="607.56" y2="607.56"/><line style="stroke:#181818;stroke-width:0.5;" x1="115" x2="259" y1="615.56" y2="615.56"/><ellipse cx="125" cy="629.2084" fill="#84BE84" rx="3" ry="3" style="stroke:#038048;stroke-width:1.0;"/><text fill="#000000" font-family="sans-serif" font-size="14" lengthAdjust="spacing" textLength="120" x="134" y="632.5551">draw(style: IStyle)</text></g><!--class StyleFactory--><g id="elem_StyleFactory"><rect codeLine="60" fill="#F1F1F1" height="64.2969" id="StyleFactory" rx="2.5" ry="2.5" style="stroke:#181818;stroke-width:0.5;" width="239" x="452.5" y="278.08"/><ellipse cx="526.25" cy="294.08" fill="#ADD1B2" rx="11" ry="11" style="stroke:#181818;stroke-width:1.0;"/><path d="M529.2188,299.7206 Q528.6406,300.0175 528,300.1581 Q527.3594,300.3144 526.6563,300.3144 Q524.1563,300.3144 522.8281,298.6738 Q521.5156,297.0175 521.5156,293.8925 Q521.5156,290.7675 522.8281,289.1113 Q524.1563,287.455 526.6563,287.455 Q527.3594,287.455 528,287.6113 Q528.6563,287.7675 529.2188,288.0644 L529.2188,290.7831 Q528.5938,290.205 528,289.9394 Q527.4063,289.6581 526.7813,289.6581 Q525.4375,289.6581 524.75,290.7363 Q524.0625,291.7988 524.0625,293.8925 Q524.0625,295.9863 524.75,297.0644 Q525.4375,298.1269 526.7813,298.1269 Q527.4063,298.1269 528,297.8613 Q528.5938,297.58 529.2188,297.0019 L529.2188,299.7206 Z " fill="#000000"/><text fill="#000000" font-family="sans-serif" font-size="14" lengthAdjust="spacing" textLength="83" x="546.75" y="298.9267">StyleFactory</text><line style="stroke:#181818;stroke-width:0.5;" x1="453.5" x2="690.5" y1="310.08" y2="310.08"/><line style="stroke:#181818;stroke-width:0.5;" x1="453.5" x2="690.5" y1="318.08" y2="318.08"/><ellipse cx="463.5" cy="331.7284" fill="#84BE84" rx="3" ry="3" style="stroke:#038048;stroke-width:1.0;"/><text fill="#000000" font-family="sans-serif" font-size="14" lengthAdjust="spacing" textLength="213" x="472.5" y="335.0751">get_style(style_type: str): IStyle</text></g><!--class IconFamilyFactory--><g id="elem_IconFamilyFactory"><rect codeLine="64" fill="#F1F1F1" height="64.2969" id="IconFamilyFactory" rx="2.5" ry="2.5" style="stroke:#181818;stroke-width:0.5;" width="325" x="726.5" y="278.08"/><ellipse cx="824.25" cy="294.08" fill="#ADD1B2" rx="11" ry="11" style="stroke:#181818;stroke-width:1.0;"/><path d="M827.2188,299.7206 Q826.6406,300.0175 826,300.1581 Q825.3594,300.3144 824.6563,300.3144 Q822.1563,300.3144 820.8281,298.6738 Q819.5156,297.0175 819.5156,293.8925 Q819.5156,290.7675 820.8281,289.1113 Q822.1563,287.455 824.6563,287.455 Q825.3594,287.455 826,287.6113 Q826.6563,287.7675 827.2188,288.0644 L827.2188,290.7831 Q826.5938,290.205 826,289.9394 Q825.4063,289.6581 824.7813,289.6581 Q823.4375,289.6581 822.75,290.7363 Q822.0625,291.7988 822.0625,293.8925 Q822.0625,295.9863 822.75,297.0644 Q823.4375,298.1269 824.7813,298.1269 Q825.4063,298.1269 826,297.8613 Q826.5938,297.58 827.2188,297.0019 L827.2188,299.7206 Z " fill="#000000"/><text fill="#000000" font-family="sans-serif" font-size="14" lengthAdjust="spacing" textLength="121" x="844.75" y="298.9267">IconFamilyFactory</text><line style="stroke:#181818;stroke-width:0.5;" x1="727.5" x2="1050.5" y1="310.08" y2="310.08"/><line style="stroke:#181818;stroke-width:0.5;" x1="727.5" x2="1050.5" y1="318.08" y2="318.08"/><ellipse cx="737.5" cy="331.7284" fill="#84BE84" rx="3" ry="3" style="stroke:#038048;stroke-width:1.0;"/><text fill="#000000" font-family="sans-serif" font-size="14" lengthAdjust="spacing" textLength="299" x="746.5" y="335.0751">get_icon_family(family_type: str): IIconFamily</text></g><!--class FunnyJsonExplorer--><g id="elem_FunnyJsonExplorer"><rect codeLine="73" fill="#F1F1F1" height="145.7813" id="FunnyJsonExplorer" rx="2.5" ry="2.5" style="stroke:#181818;stroke-width:0.5;" width="183" x="480.5" y="41"/><ellipse cx="506.3" cy="57" fill="#ADD1B2" rx="11" ry="11" style="stroke:#181818;stroke-width:1.0;"/><path d="M509.2688,62.6406 Q508.6906,62.9375 508.05,63.0781 Q507.4094,63.2344 506.7063,63.2344 Q504.2063,63.2344 502.8781,61.5938 Q501.5656,59.9375 501.5656,56.8125 Q501.5656,53.6875 502.8781,52.0313 Q504.2063,50.375 506.7063,50.375 Q507.4094,50.375 508.05,50.5313 Q508.7063,50.6875 509.2688,50.9844 L509.2688,53.7031 Q508.6438,53.125 508.05,52.8594 Q507.4563,52.5781 506.8313,52.5781 Q505.4875,52.5781 504.8,53.6563 Q504.1125,54.7188 504.1125,56.8125 Q504.1125,58.9063 504.8,59.9844 Q505.4875,61.0469 506.8313,61.0469 Q507.4563,61.0469 508.05,60.7813 Q508.6438,60.5 509.2688,59.9219 L509.2688,62.6406 Z " fill="#000000"/><text fill="#000000" font-family="sans-serif" font-size="14" lengthAdjust="spacing" textLength="127" x="522.7" y="61.8467">FunnyJsonExplorer</text><line style="stroke:#181818;stroke-width:0.5;" x1="481.5" x2="662.5" y1="73" y2="73"/><rect fill="none" height="6" style="stroke:#C82930;stroke-width:1.0;" width="6" x="488.5" y="83.6484"/><text fill="#000000" font-family="sans-serif" font-size="14" lengthAdjust="spacing" textLength="82" x="500.5" y="89.9951">json_file: str</text><rect fill="none" height="6" style="stroke:#C82930;stroke-width:1.0;" width="6" x="488.5" y="99.9453"/><text fill="#000000" font-family="sans-serif" font-size="14" lengthAdjust="spacing" textLength="77" x="500.5" y="106.292">style: IStyle</text><rect fill="none" height="6" style="stroke:#C82930;stroke-width:1.0;" width="6" x="488.5" y="116.2422"/><text fill="#000000" font-family="sans-serif" font-size="14" lengthAdjust="spacing" textLength="157" x="500.5" y="122.5889">icon_family: IIconFamily</text><rect fill="none" height="6" style="stroke:#C82930;stroke-width:1.0;" width="6" x="488.5" y="132.5391"/><text fill="#000000" font-family="sans-serif" font-size="14" lengthAdjust="spacing" textLength="104" x="500.5" y="138.8857">root: Container</text><line style="stroke:#181818;stroke-width:0.5;" x1="481.5" x2="662.5" y1="146.1875" y2="146.1875"/><ellipse cx="491.5" cy="159.8359" fill="#84BE84" rx="3" ry="3" style="stroke:#038048;stroke-width:1.0;"/><text fill="#000000" font-family="sans-serif" font-size="14" lengthAdjust="spacing" textLength="39" x="500.5" y="163.1826">load()</text><ellipse cx="491.5" cy="176.1328" fill="#84BE84" rx="3" ry="3" style="stroke:#038048;stroke-width:1.0;"/><text fill="#000000" font-family="sans-serif" font-size="14" lengthAdjust="spacing" textLength="47" x="500.5" y="179.4795">show()</text></g><!--reverse link IStyle to TreeStyle--><g id="link_IStyle_TreeStyle"><path codeLine="14" d="M538.1814,514.0676 C521.4914,536.7476 509.73,552.73 493.05,575.39 " fill="none" id="IStyle-backto-TreeStyle" style="stroke:#181818;stroke-width:1.0;stroke-dasharray:7.0,7.0;"/><polygon fill="none" points="548.85,499.57,533.3488,510.5114,543.0139,517.6238,548.85,499.57" style="stroke:#181818;stroke-width:1.0;"/></g><!--reverse link IStyle to RectangleStyle--><g id="link_IStyle_RectangleStyle"><path codeLine="15" d="M617.3752,512.0975 C640.7752,534.7775 659.31,552.73 682.68,575.39 " fill="none" id="IStyle-backto-RectangleStyle" style="stroke:#181818;stroke-width:1.0;stroke-dasharray:7.0,7.0;"/><polygon fill="none" points="604.45,499.57,613.1994,516.4059,621.5511,507.7891,604.45,499.57" style="stroke:#181818;stroke-width:1.0;"/></g><!--reverse link IIconFamily to PokerFaceIconFamily--><g id="link_IIconFamily_PokerFaceIconFamily"><path codeLine="31" d="M977,517.57 C977,540.25 977,552.73 977,575.39 " fill="none" id="IIconFamily-backto-PokerFaceIconFamily" style="stroke:#181818;stroke-width:1.0;stroke-dasharray:7.0,7.0;"/><polygon fill="none" points="977,499.57,971,517.57,983,517.57,977,499.57" style="stroke:#181818;stroke-width:1.0;"/></g><!--reverse link IIconFamily to DefaultIconFamily--><g id="link_IIconFamily_DefaultIconFamily"><path codeLine="32" d="M1046.8551,508.7975 C1085.6851,531.4075 1122.16,552.65 1160.93,575.22 " fill="none" id="IIconFamily-backto-DefaultIconFamily" style="stroke:#181818;stroke-width:1.0;stroke-dasharray:7.0,7.0;"/><polygon fill="none" points="1031.3,499.74,1043.836,513.9825,1049.8743,503.6124,1031.3,499.74" style="stroke:#181818;stroke-width:1.0;"/></g><!--reverse link Component to Leaf--><g id="link_Component_Leaf"><path codeLine="52" d="M283.8756,374.1279 C290.3056,384.4979 286.52,380.51 290,391.97 C305.96,444.53 312.56,465.48 290,515.56 C279.16,539.62 258.49,559.89 238.49,575.16 " fill="none" id="Component-backto-Leaf" style="stroke:#181818;stroke-width:1.0;stroke-dasharray:7.0,7.0;"/><polygon fill="none" points="274.39,358.83,278.7763,377.2897,288.9748,370.966,274.39,358.83" style="stroke:#181818;stroke-width:1.0;"/></g><!--reverse link Component to Container--><g id="link_Component_Container"><path codeLine="53" d="M196.1739,374.1698 C184.2439,393.0198 180.2,399.42 168.27,418.27 " fill="none" id="Component-backto-Container" style="stroke:#181818;stroke-width:1.0;stroke-dasharray:7.0,7.0;"/><polygon fill="none" points="205.8,358.96,191.1039,370.9611,201.2438,377.3785,205.8,358.96" style="stroke:#181818;stroke-width:1.0;"/></g><!--reverse link Container to Leaf--><g id="link_Container_Leaf"><path codeLine="55" d="M158.8604,527.1236 C165.8404,546.8636 169.73,557.87 175.95,575.46 " fill="none" id="Container-backto-Leaf" style="stroke:#181818;stroke-width:1.0;"/><polygon fill="none" points="154.86,515.81,153.089,522.8003,158.8604,527.1236,160.6314,520.1333,154.86,515.81" style="stroke:#181818;stroke-width:1.0;"/></g><!--reverse link Container to Container--><g id="link_Container_Container"><path codeLine="56" d="M266.7263,444.3144 C287.1463,447.6144 289.5,453.94 289.5,467.12 C289.5,480.3 275.3,488.54 254.88,491.83 " fill="none" id="Container-backto-Container" style="stroke:#181818;stroke-width:1.0;"/><polygon fill="none" points="254.88,442.4,260.165,447.306,266.7263,444.3144,261.4413,439.4085,254.88,442.4" style="stroke:#181818;stroke-width:1.0;"/></g><!--link StyleFactory to IStyle--><g id="link_StyleFactory_IStyle"><path codeLine="68" d="M572,342.57 C572,369.36 572,401.71 572,428.55 " fill="none" id="StyleFactory-to-IStyle" style="stroke:#181818;stroke-width:1.0;"/><polygon fill="#181818" points="572,434.55,576,425.55,572,429.55,568,425.55,572,434.55" style="stroke:#181818;stroke-width:1.0;"/></g><!--link IconFamilyFactory to IIconFamily--><g id="link_IconFamilyFactory_IIconFamily"><path codeLine="69" d="M906.81,342.57 C922.03,369.36 940.8445,402.4941 956.1045,429.3341 " fill="none" id="IconFamilyFactory-to-IIconFamily" style="stroke:#181818;stroke-width:1.0;"/><polygon fill="#181818" points="959.07,434.55,958.099,424.7491,956.5987,430.2034,951.1444,428.7032,959.07,434.55" style="stroke:#181818;stroke-width:1.0;"/></g><!--link FunnyJsonExplorer to StyleFactory--><g id="link_FunnyJsonExplorer_StyleFactory"><path codeLine="82" d="M572,187.25 C572,218.44 572,247.28 572,271.72 " fill="none" id="FunnyJsonExplorer-to-StyleFactory" style="stroke:#181818;stroke-width:1.0;"/><polygon fill="#181818" points="572,277.72,576,268.72,572,272.72,568,268.72,572,277.72" style="stroke:#181818;stroke-width:1.0;"/></g><!--link FunnyJsonExplorer to IconFamilyFactory--><g id="link_FunnyJsonExplorer_IconFamilyFactory"><path codeLine="83" d="M663.69,171.1 C720.19,205.74 785.4445,245.7444 832.3645,274.5044 " fill="none" id="FunnyJsonExplorer-to-IconFamilyFactory" style="stroke:#181818;stroke-width:1.0;"/><polygon fill="#181818" points="837.48,277.64,831.8972,269.5263,833.2171,275.027,827.7164,276.347,837.48,277.64" style="stroke:#181818;stroke-width:1.0;"/></g><!--link FunnyJsonExplorer to Component--><g id="link_FunnyJsonExplorer_Component"><path codeLine="84" d="M480.19,167.99 C426.46,199.07 364.7438,234.7659 314.5538,263.7959 " fill="none" id="FunnyJsonExplorer-to-Component" style="stroke:#181818;stroke-width:1.0;"/><polygon fill="#181818" points="309.36,266.8,319.1534,265.7564,313.6882,264.2966,315.1479,258.8313,309.36,266.8" style="stroke:#181818;stroke-width:1.0;"/></g><!--SRC=[hLJ1JiCm3BttAwATEg7k0oh4PJ1fY0C2xbLelIqiIweaqwXW_qwQDakoT4LYzDBAVhQVdvzQutABru0chwgXW9PCWLZX4YReAq7w8JQ0bXsY2xVFJINm8IqvKvWm43cQsy-fmHmJyoefbXAz2O2h6hn0gJ1RqxzswUdVVizcZaoK2QSakhQs0Ytr2BJ0EqARKPbQN0_pIAv15KHdKY8B2dYLetVEwJH7KebusMU-1R7GxVwZsJsiy9wgwrhvQncb1YWE0wFnWQfplgiv0wR6D7KWnpnhMJkQ9iJm3i9GPmxP7ZFl3ptWhPDZ_FxbXj1AW9v1YLI_TpH9N5NQYZtRt14V6FgarOviV9cfqy2esbOFnK-hs2gx6SyolyWFknh_ClgsYWi2qjwZessOTRd8I8PzjqEXchgxnTIk4qlWF76XONlZOcKGQVSA-vvvhsyUKCooEtz-FD80BhZpuREcN8089LZi6MiU9MSsxTlcGxQK2JqpOXPSDdHnls6yZq48pfNtKtC2KOwhrFEUtF136dWc9jekwyip0ekK6i6UJ9WSVm00]--></g></svg>